<svg width="118" height="118" viewBox="0 0 118 118" fill="none" xmlns="http://www.w3.org/2000/svg">
<path d="M33.9682 46.2337C30.8062 49.4649 29.6057 54.2018 30.8388 58.5968L37.4883 82.3179L17.8327 102.413C17.0025 103.26 15.5904 102.885 15.2649 101.733L1.09081 51.1944C-0.142243 46.7994 1.05826 42.0625 4.22025 38.8313L38.5993 3.68719C41.7084 0.504843 46.2337 -0.732282 50.4863 0.427523L51.056 0.586233L52.2036 0.899584C61.36 3.40639 64.4243 15.098 57.7219 21.9511L33.9682 46.2378V46.2337Z" fill="#2054A5"/>
<path d="M63.7158 53.6402C60.5497 56.8714 59.3533 61.6083 60.5863 66.0033L67.2847 89.8831L47.625 109.978C46.7948 110.825 45.3827 110.45 45.0571 109.299L37.492 82.3179L30.8424 58.5968C29.6093 54.2018 30.8058 49.4649 33.9718 46.2337L57.7255 21.947C64.4279 15.098 61.3595 3.40231 52.2072 0.895508L81.3855 8.88392C90.5378 11.3907 93.6021 23.0864 86.9078 29.9354L63.7239 53.6361L63.7158 53.6402Z" fill="#0090D1"/>
<path d="M77.4223 117.539C76.5962 118.386 75.18 118.011 74.8545 116.86L67.2852 89.8832L60.5909 66.0034C59.3538 61.6083 60.5502 56.8714 63.7163 53.6403L86.9002 29.9395C93.5986 23.0906 90.5342 11.3949 81.382 8.88806L95.2548 12.6849C99.4261 13.8284 102.71 17.1206 103.903 21.3651L116.957 67.7899C118.219 72.2745 116.99 77.0927 113.73 80.4216L77.4223 117.539Z" fill="#00C8D9"/>
</svg>
